<svg width="40" height="40" viewBox="0 0 40 40" fill="none" xmlns="http://www.w3.org/2000/svg">
<path fill-rule="evenodd" clip-rule="evenodd" d="M20 40C31.0457 40 40 31.0457 40 20C40 8.95431 31.0457 0 20 0C8.95431 0 0 8.95431 0 20C0 31.0457 8.95431 40 20 40Z" fill="#DE5833" style="fill:#DE5833;fill:color(display-p3 0.8706 0.3451 0.2000);fill-opacity:1;"/>
<path fill-rule="evenodd" clip-rule="evenodd" d="M22.8125 34.9219C22.8125 34.7656 22.8508 34.73 22.3542 33.74C21.0342 31.0966 19.7075 27.37 20.3108 24.9666C20.4208 24.53 19.0675 8.79665 18.1109 8.28998C17.0475 7.72331 15.7392 6.8244 14.5425 6.6244C13.9354 6.52725 13.1393 6.57326 12.517 6.65708C12.4064 6.67198 12.4018 6.87078 12.5075 6.90659C12.9161 7.04502 13.4122 7.28535 13.7046 7.64873C13.7599 7.71751 13.6856 7.82569 13.5974 7.82896C13.3218 7.83917 12.8218 7.9547 12.1622 8.51499C12.0859 8.57979 12.1492 8.70012 12.2474 8.68069C13.6651 8.40022 15.1129 8.53841 15.9662 9.31394C16.0215 9.36426 15.9926 9.45456 15.9204 9.47418C8.51596 11.4864 9.98173 17.9274 11.9529 25.8316C13.5478 32.2272 14.2391 34.6857 14.5085 35.6006C14.5718 35.8153 14.7265 35.9895 14.9375 36.064C17.5742 36.9948 22.8125 36.989 22.8125 35.3125V34.9219Z" fill="#DDDDDD" style="fill:#DDDDDD;fill:color(display-p3 0.8676 0.8676 0.8676);fill-opacity:1;"/>
<path fill-rule="evenodd" clip-rule="evenodd" d="M38.3594 20C38.3594 30.1396 30.1396 38.3594 20 38.3594C9.8604 38.3594 1.64062 30.1396 1.64062 20C1.64062 9.8604 9.8604 1.64062 20 1.64062C30.1396 1.64062 38.3594 9.8604 38.3594 20ZM15.7154 36.2455C15.208 34.6782 13.7902 30.1358 12.3898 24.3953C12.3431 24.2041 12.2965 24.0137 12.2501 23.8243L12.249 23.8195C10.5539 16.8958 9.16937 11.2406 16.7574 9.46406C16.8268 9.44782 16.8607 9.36488 16.8148 9.3104C15.9442 8.27755 14.3132 7.93902 12.2509 8.65049C12.1663 8.67967 12.0929 8.59438 12.1454 8.52196C12.5498 7.96454 13.3401 7.53595 13.7303 7.34807C13.8109 7.30924 13.806 7.19116 13.7206 7.16443C13.4654 7.08454 13.0309 6.96229 12.5421 6.8834C12.4265 6.86474 12.416 6.66656 12.5321 6.65094C15.4558 6.25759 18.5088 7.13535 20.0409 9.06523C20.0553 9.0834 20.0762 9.0961 20.0989 9.10097C25.7091 10.3058 26.1108 19.1744 25.4645 19.5783C25.3371 19.658 24.9288 19.6123 24.3901 19.552C22.2072 19.3078 17.8845 18.8241 21.4522 25.473C21.4874 25.5387 21.4407 25.6256 21.3671 25.6371C19.3622 25.9488 21.9156 32.2103 23.8085 36.3633C31.2505 34.638 36.7969 27.9667 36.7969 20C36.7969 10.7233 29.2767 3.20312 20 3.20312C10.7233 3.20312 3.20312 10.7233 3.20312 20C3.20312 27.7959 8.51414 34.3513 15.7154 36.2455Z" fill="white" style="fill:white;fill-opacity:1;"/>
<path d="M26.3376 28.3431C25.9105 28.1452 24.2683 29.3229 23.1784 30.227C22.9506 29.9047 22.5211 29.6704 21.5522 29.8389C20.7043 29.9863 20.2361 30.1908 20.0273 30.5432C18.6889 30.0358 16.4373 29.2527 15.8933 30.009C15.2987 30.8357 16.0419 34.7467 16.8316 35.2544C17.244 35.5196 19.2162 34.2519 20.2461 33.3777C20.4123 33.6118 20.6798 33.7458 21.2297 33.733C22.0615 33.7138 23.4105 33.5202 23.6199 33.1328C23.6326 33.1093 23.6436 33.0815 23.6529 33.0498C24.7115 33.4455 26.5746 33.8642 26.9908 33.8017C28.0755 33.6388 26.8397 28.5758 26.3376 28.3431Z" fill="#3CA82B" style="fill:#3CA82B;fill:color(display-p3 0.2366 0.6600 0.1702);fill-opacity:1;"/>
<path d="M23.2782 30.3427C23.3231 30.4227 23.3592 30.5072 23.3899 30.5931C23.5408 31.0151 23.7867 32.3578 23.6008 32.6895C23.4148 33.0211 22.2072 33.1813 21.4622 33.1941C20.7172 33.207 20.5495 32.9345 20.3986 32.5125C20.2779 32.1748 20.2185 31.381 20.2199 30.9265C20.1894 30.2523 20.4357 30.0152 21.5743 29.831C22.4169 29.6946 22.8623 29.8532 23.1195 30.1246C24.3157 29.2318 26.3116 27.9719 26.5062 28.2021C27.4769 29.3503 27.5996 32.0836 27.3894 33.1832C27.3207 33.5427 24.1066 32.827 24.1066 32.4393C24.1066 30.8295 23.6889 30.3878 23.2782 30.3427Z" fill="#4CBA3C" style="fill:#4CBA3C;fill:color(display-p3 0.2980 0.7294 0.2353);fill-opacity:1;"/>
<path d="M16.2376 29.8399C16.5009 29.4233 18.6356 29.9414 19.8074 30.4629C19.8074 30.4629 19.5666 31.5538 19.95 32.8391C20.0621 33.2151 17.254 34.8884 16.8875 34.6005C16.4639 34.2678 15.6843 30.7156 16.2376 29.8399Z" fill="#4CBA3C" style="fill:#4CBA3C;fill:color(display-p3 0.2980 0.7294 0.2353);fill-opacity:1;"/>
<path fill-rule="evenodd" clip-rule="evenodd" d="M17.2715 21.3771C17.4442 20.626 18.2488 19.2108 21.1219 19.2451C22.5744 19.2391 24.3786 19.2445 25.5748 19.1086C27.3527 18.9067 28.6724 18.4766 29.5517 18.1415C30.7954 17.667 31.2368 17.7728 31.3915 18.0567C31.5615 18.3686 31.3612 18.9073 30.9266 19.4032C30.0966 20.3503 28.6043 21.0842 25.9689 21.302C23.3334 21.5199 21.5874 20.8129 20.8358 21.9639C20.5117 22.4603 20.7623 23.6303 23.3109 23.9987C26.755 24.4958 29.5835 23.3998 29.933 24.0617C30.2825 24.7236 28.2693 26.0703 24.8197 26.0985C21.37 26.1267 19.2154 24.8907 18.4513 24.2764C17.4818 23.4969 17.048 22.3601 17.2715 21.3771Z" fill="#FFCC33" style="fill:#FFCC33;fill:color(display-p3 1.0000 0.8000 0.2000);fill-opacity:1;"/>
<g opacity="0.8">
<path d="M21.6646 13.1647C21.857 12.8496 22.2837 12.6064 22.982 12.6064C23.6803 12.6064 24.0088 12.8843 24.2362 13.1941C24.2824 13.2572 24.2123 13.3313 24.1406 13.3003C24.1233 13.2929 24.1059 13.2852 24.0881 13.2775C23.8327 13.1659 23.5192 13.029 22.982 13.0213C22.4075 13.0132 22.0452 13.1571 21.8171 13.2811C21.7402 13.3229 21.619 13.2394 21.6646 13.1647Z" fill="#14307E" style="fill:#14307E;fill:color(display-p3 0.0784 0.1882 0.4941);fill-opacity:1;"/>
<path d="M13.8033 13.5678C14.4814 13.2844 15.0142 13.3211 15.391 13.4102C15.4703 13.4289 15.5254 13.3436 15.462 13.2924C15.1696 13.0566 14.5152 12.7638 13.6616 13.082C12.9003 13.3659 12.5414 13.9558 12.5393 14.3436C12.5388 14.435 12.7268 14.4428 12.7755 14.3654C12.9069 14.1564 13.1253 13.8511 13.8033 13.5678Z" fill="#14307E" style="fill:#14307E;fill:color(display-p3 0.0784 0.1882 0.4941);fill-opacity:1;"/>
<path fill-rule="evenodd" clip-rule="evenodd" d="M23.5751 17.4749C22.9757 17.4749 22.4895 16.9901 22.4895 16.3933C22.4895 15.7965 22.9757 15.3116 23.5751 15.3116C24.1745 15.3116 24.6607 15.7965 24.6607 16.3933C24.6607 16.9901 24.1745 17.4749 23.5751 17.4749ZM24.3397 16.035C24.3397 15.8804 24.2132 15.7552 24.0586 15.7552C23.9041 15.7552 23.7789 15.8804 23.7776 16.035C23.7776 16.1895 23.9041 16.3147 24.0586 16.3147C24.2145 16.3147 24.3397 16.1895 24.3397 16.035Z" fill="#14307E" style="fill:#14307E;fill:color(display-p3 0.0784 0.1882 0.4941);fill-opacity:1;"/>
<path fill-rule="evenodd" clip-rule="evenodd" d="M16.3822 17.1419C16.3822 17.8385 15.8161 18.4033 15.1168 18.4033C14.4188 18.4033 13.8514 17.8385 13.8514 17.1419C13.8514 16.4452 14.4188 15.8804 15.1168 15.8804C15.8148 15.8804 16.3822 16.4452 16.3822 17.1419ZM16.0093 16.7236C16.0093 16.5438 15.8627 16.3972 15.6816 16.3972C15.5018 16.3972 15.3552 16.5424 15.3539 16.7236C15.3539 16.9034 15.5004 17.0499 15.6816 17.0499C15.8627 17.0499 16.0093 16.9034 16.0093 16.7236Z" fill="#14307E" style="fill:#14307E;fill:color(display-p3 0.0784 0.1882 0.4941);fill-opacity:1;"/>
</g>
</svg>
