<svg width="32" height="32" viewBox="0 0 32 32" fill="none" xmlns="http://www.w3.org/2000/svg">
<path d="M20.323 11.088V2H25.353V18.203L31.549 28.958H25.698L22.744 23.563C22.578 23.785 22.403 24.011 22.218 24.238C20.318 26.575 17.172 29.361 12.743 29.656C4.195 30.226 0 23.487 0 18.496C0 16.172 0.935 13.364 3.013 11.181C5.168 8.918 8.423 7.461 12.738 7.739C15.902 7.943 18.438 9.429 20.323 11.088ZM20.003 18.548C19.501 17.711 18.929 16.918 18.293 16.177C16.745 14.385 14.753 12.909 12.414 12.757C9.5 12.57 7.725 13.527 6.657 14.649C5.51 15.852 5.03 17.4 5.03 18.497C5.03 21.15 7.305 24.978 12.409 24.638C14.806 24.478 16.791 22.939 18.315 21.065C19.054 20.156 19.615 19.25 19.993 18.568L20.003 18.548Z" fill="white" style="fill:white;fill-opacity:1;"/>
</svg>
