<svg xmlns="http://www.w3.org/2000/svg" width="278.507" height="64" viewBox="0 0 278.507 64"><g transform="translate(-61 -175)"><path d="M0,0H278.507V64H0Z" transform="translate(61 175)" fill="transparent"/><g transform="translate(-4.908 4)"><g transform="translate(66.902 164)"><g transform="translate(10.098 23.787)"><g transform="translate(13.65 0.002)"><path d="M80.982,77.18a2.168,2.168,0,0,0-1.142-.418,1.7,1.7,0,0,1-1.05-.462,1.287,1.287,0,0,1,0-2.033l1.41-1.252a4.52,4.52,0,0,0,0-6.926A8.925,8.925,0,0,0,74.264,64a11.223,11.223,0,0,0-7.372,2.79,8.134,8.134,0,0,0,0,12.465,10.869,10.869,0,0,0,7.1,2.572h.079a10.448,10.448,0,0,0,6.908-2.433,1.568,1.568,0,0,0,0-2.214Z" transform="translate(-63.985 -64)" fill="none" stroke="#000" stroke-miterlimit="10" stroke-width="1"/><circle cx="1.486" cy="1.486" r="1.486" transform="translate(2.229 5.199)" fill="#000"/><circle cx="1.486" cy="1.486" r="1.486" transform="translate(2.6 9.981)" fill="#000"/><circle cx="1.486" cy="1.486" r="1.486" transform="translate(5.943 2.228)" fill="#000"/><circle cx="2.228" cy="2.228" r="2.228" transform="translate(6.686 11.838)" fill="#000"/><circle cx="1.486" cy="1.486" r="1.486" transform="translate(10.771 2.228)" fill="#000"/></g><path d="M19.649,41.008,10.1,32.652,19.649,24.3" transform="translate(-10.098 -23.787)" fill="none" stroke="#000" stroke-linecap="round" stroke-linejoin="round" stroke-width="1"/><path d="M46.231,41.008l9.551-8.357L46.231,24.3" transform="translate(-10.098 -23.787)" fill="none" stroke="#000" stroke-linecap="round" stroke-linejoin="round" stroke-width="1"/></g><path d="M5.9-1.54a.2.2,0,0,1,.155.07l.42.46a3,3,0,0,1-1.073.8A3.689,3.689,0,0,1,3.88.08,3.563,3.563,0,0,1,2.468-.19a3.111,3.111,0,0,1-1.08-.755A3.4,3.4,0,0,1,.7-2.105,4.324,4.324,0,0,1,.45-3.59,4.135,4.135,0,0,1,.708-5.075a3.41,3.41,0,0,1,.723-1.16A3.258,3.258,0,0,1,2.543-6.99a3.687,3.687,0,0,1,1.432-.27,3.484,3.484,0,0,1,1.36.25,3.426,3.426,0,0,1,1.035.665l-.35.495a.3.3,0,0,1-.088.09.244.244,0,0,1-.138.035.394.394,0,0,1-.222-.095,3.269,3.269,0,0,0-.335-.213,2.641,2.641,0,0,0-.512-.213,2.592,2.592,0,0,0-.76-.095,2.5,2.5,0,0,0-.98.187,2.169,2.169,0,0,0-.768.54,2.451,2.451,0,0,0-.5.865A3.524,3.524,0,0,0,1.54-3.59a3.4,3.4,0,0,0,.185,1.165,2.552,2.552,0,0,0,.51.865A2.162,2.162,0,0,0,3-1.02a2.426,2.426,0,0,0,.95.185,3.746,3.746,0,0,0,.558-.037,2.391,2.391,0,0,0,.455-.113,1.994,1.994,0,0,0,.392-.192A2.625,2.625,0,0,0,5.72-1.46a.4.4,0,0,1,.085-.058A.21.21,0,0,1,5.9-1.54ZM11.66-.9V0H7.55V-7.18H8.615V-.9Zm3.6.04A1.946,1.946,0,0,0,16.025-1a1.605,1.605,0,0,0,.575-.408,1.808,1.808,0,0,0,.36-.625,2.449,2.449,0,0,0,.125-.8V-7.18h1.06v4.345a3.3,3.3,0,0,1-.2,1.165,2.662,2.662,0,0,1-.575.925,2.634,2.634,0,0,1-.91.61,3.143,3.143,0,0,1-1.2.22,3.143,3.143,0,0,1-1.205-.22,2.634,2.634,0,0,1-.91-.61,2.662,2.662,0,0,1-.575-.925,3.3,3.3,0,0,1-.2-1.165V-7.18H13.43v4.34a2.518,2.518,0,0,0,.123.805,1.774,1.774,0,0,0,.358.628A1.605,1.605,0,0,0,14.485-1,1.946,1.946,0,0,0,15.255-.855Zm7.14.01a2.221,2.221,0,0,0,.692-.095,1.3,1.3,0,0,0,.47-.26.989.989,0,0,0,.268-.393,1.411,1.411,0,0,0,.085-.5,1.037,1.037,0,0,0-.37-.843A1.77,1.77,0,0,0,22.4-3.24H20.9V-.845Zm-1.5-5.5V-4H22.12a1.8,1.8,0,0,0,1.168-.317,1.056,1.056,0,0,0,.382-.858,1.057,1.057,0,0,0-.365-.9,1.864,1.864,0,0,0-1.135-.28ZM22.17-7.18a4.5,4.5,0,0,1,1.157.13,2.177,2.177,0,0,1,.792.375,1.489,1.489,0,0,1,.458.592,2,2,0,0,1,.148.788,1.571,1.571,0,0,1-.08.5,1.454,1.454,0,0,1-.245.447,1.768,1.768,0,0,1-.415.373,2.417,2.417,0,0,1-.59.275q1.565.31,1.565,1.635a2.017,2.017,0,0,1-.17.837,1.832,1.832,0,0,1-.5.653,2.289,2.289,0,0,1-.8.425,3.583,3.583,0,0,1-1.08.15H19.83V-7.18Z" transform="translate(20.006 57.5)" fill="#000"/></g><path d="M0,0V38" transform="translate(137 184.5)" fill="none" stroke="#000" stroke-width="1"/><path d="M1.017-11.839V.016H3.558A5.208,5.208,0,0,0,6.119-.459c1.7-.873,2.623-2.89,2.623-5.48,0-2.279-.676-4.274-2.2-5.265a4.655,4.655,0,0,0-2.756-.635Zm1.263,1.131H3.706a3.162,3.162,0,0,1,2.228.65c1.1.912,1.468,2.6,1.468,4.3,0,2.257-.749,3.556-1.695,4.194a3.633,3.633,0,0,1-2.214.534H2.279ZM14.414-8.892c-2.073,0-3.991,1.483-3.991,4.651,0,2.892,1.81,4.44,4.168,4.44A3.949,3.949,0,0,0,17.7-1.148l-.754-.738A2.991,2.991,0,0,1,14.7-.909c-1.161,0-2.843-.64-2.946-3.239h6.16a6.514,6.514,0,0,0-.06-1.658A3.356,3.356,0,0,0,14.414-8.892ZM11.8-5.2c.27-2.047,1.592-2.643,2.523-2.643A2.3,2.3,0,0,1,16.567-5.2ZM27.215-7.526a4.293,4.293,0,0,0-3.238-1.361c-2.016,0-3.337,1.127-3.337,2.423,0,1.516,1.644,2.068,2.115,2.238.734.265,1.693.5,2.333.8.716.335.866.792.866,1.106,0,.813-.992,1.373-2.232,1.373A3.715,3.715,0,0,1,21.006-2.16a.232.232,0,0,1-.053-.2.174.174,0,0,0-.084-.179l-.787,1.361A5.333,5.333,0,0,0,23.746.2c2.372,0,3.611-1.4,3.611-2.71a2.2,2.2,0,0,0-1.274-1.963c-.981-.551-2.379-.747-3.19-1.139-.709-.343-.86-.764-.86-1.055,0-.7.848-1.185,1.829-1.185a3.134,3.134,0,0,1,2.41,1.192.23.23,0,0,1,.041.181c0,.114.065.145.1.153Zm3.3-1.164v1.115h2.1V-1.1H30.4V0h5.624V-1.1H33.993V-8.69Zm2.82-3.771a.981.981,0,0,0-.984.976.98.98,0,0,0,.984.976.981.981,0,0,0,.984-.976A.98.98,0,0,0,33.337-12.462Zm7.056,6.489A1.911,1.911,0,0,1,42.3-7.88a1.91,1.91,0,0,1,1.911,1.906A1.911,1.911,0,0,1,42.3-4.066,1.91,1.91,0,0,1,40.393-5.973Zm1.995-2.989a3.2,3.2,0,0,0-3.244,3.069,2.811,2.811,0,0,0,1.283,2.351,2.348,2.348,0,0,0-.983,1.675,1.277,1.277,0,0,0,.7,1.157c-.932.595-1.412,1.233-1.412,1.923,0,.946.883,2.056,3.925,2.056,2.94,0,3.994-1.49,3.994-2.654A2.021,2.021,0,0,0,45.3-1.269a7.835,7.835,0,0,0-2.938-.246,5.245,5.245,0,0,1-1.24-.109c-.332-.091-.526-.3-.526-.57,0-.459.535-.9.62-.971a3.173,3.173,0,0,0,1.1.2A3.085,3.085,0,0,0,45.444-5.94,2.658,2.658,0,0,0,45-7.411a2.946,2.946,0,0,1,1.516-.42,2.945,2.945,0,0,1,.5.043L46.854-8.9a3.344,3.344,0,0,0-2.41.771A2.884,2.884,0,0,0,42.388-8.962Zm-1.323,8.5c.329.043.79.08,1.454.1.641.024,1.341-.024,1.839.051.8.121,1.036.628,1.036,1.01a1.347,1.347,0,0,1-.812,1.152,4.089,4.089,0,0,1-1.951.38,5.017,5.017,0,0,1-1.791-.284A1.158,1.158,0,0,1,39.984.89C39.984.266,40.566-.19,41.065-.464ZM48.8,0h1.394V-5a2.207,2.207,0,0,1,.431-1.49A2.965,2.965,0,0,1,52.7-7.7a1.514,1.514,0,0,1,1.177.55,2.867,2.867,0,0,1,.474,1.919V0H55.7V-5.263h0a4.986,4.986,0,0,0-.313-2.092,2.494,2.494,0,0,0-2.311-1.532,3.622,3.622,0,0,0-2.885,1.738V-8.674H48.8ZM67.09-11.855v1.2h3.361V.016H71.8V-10.658h3.493v-1.2ZM80.914-8.892c-2.073,0-3.991,1.483-3.991,4.651,0,2.892,1.81,4.44,4.168,4.44A3.949,3.949,0,0,0,84.2-1.148l-.754-.738A2.991,2.991,0,0,1,81.2-.909c-1.161,0-2.843-.64-2.946-3.239h6.16a6.514,6.514,0,0,0-.06-1.658A3.356,3.356,0,0,0,80.914-8.892ZM78.3-5.2c.27-2.047,1.592-2.643,2.523-2.643A2.3,2.3,0,0,1,83.067-5.2Zm15.878-2.05a3.825,3.825,0,0,0-3.246-1.607,4.29,4.29,0,0,0-4.362,4.518A4.3,4.3,0,0,0,90.842.213a4.349,4.349,0,0,0,3.2-1.377l-.787-.918a3.084,3.084,0,0,1-2.3,1.05c-1.691,0-2.981-1.417-2.981-3.446a2.926,2.926,0,0,1,2.866-3.213,2.655,2.655,0,0,1,2.245,1.137c.073.147-.031.325.12.439ZM96.328,0h1.394V-5a2.207,2.207,0,0,1,.431-1.49A2.965,2.965,0,0,1,100.236-7.7a1.514,1.514,0,0,1,1.177.55,2.867,2.867,0,0,1,.474,1.919V0h1.345V-5.263h0a4.985,4.985,0,0,0-.313-2.092,2.494,2.494,0,0,0-2.311-1.532,3.622,3.622,0,0,0-2.885,1.738v-5.034a.223.223,0,0,1,.069-.182.3.3,0,0,0,.121-.2.177.177,0,0,0-.009-.057H96.328ZM105.8,0h1.394V-5a2.207,2.207,0,0,1,.431-1.49A2.965,2.965,0,0,1,109.7-7.7a1.514,1.514,0,0,1,1.177.55,2.867,2.867,0,0,1,.474,1.919V0H112.7V-5.263h0a4.986,4.986,0,0,0-.313-2.092,2.494,2.494,0,0,0-2.311-1.532,3.622,3.622,0,0,0-2.885,1.738V-8.674H105.8Zm16.946-4.3c0-3-1.892-4.57-3.864-4.57a4.322,4.322,0,0,0-4.109,4.6,4.244,4.244,0,0,0,4.068,4.5C120.892.23,122.741-1.423,122.741-4.3Zm-3.958-3.407c1.252,0,2.581,1.081,2.581,3.464,0,2.185-1.251,3.293-2.518,3.293-1.383,0-2.634-1.3-2.634-3.44S117.456-7.708,118.784-7.708Zm6.323-4.917v1.1h2.46V-1.1h-2.574V0h6.51V-1.1h-2.558V-12.626ZM141.741-4.3c0-3-1.892-4.57-3.864-4.57a4.322,4.322,0,0,0-4.109,4.6,4.244,4.244,0,0,0,4.068,4.5C139.892.23,141.741-1.423,141.741-4.3Zm-3.958-3.407c1.252,0,2.581,1.081,2.581,3.464,0,2.185-1.251,3.293-2.518,3.293-1.383,0-2.634-1.3-2.634-3.44S136.456-7.708,137.784-7.708Zm7.109,1.735A1.911,1.911,0,0,1,146.8-7.88a1.91,1.91,0,0,1,1.911,1.906A1.911,1.911,0,0,1,146.8-4.066,1.91,1.91,0,0,1,144.893-5.973Zm1.995-2.989a3.2,3.2,0,0,0-3.244,3.069,2.811,2.811,0,0,0,1.283,2.351,2.349,2.349,0,0,0-.983,1.675,1.277,1.277,0,0,0,.7,1.157c-.932.595-1.412,1.233-1.412,1.923,0,.946.883,2.056,3.925,2.056,2.94,0,3.994-1.49,3.994-2.654a2.021,2.021,0,0,0-1.35-1.884,7.835,7.835,0,0,0-2.938-.246,5.245,5.245,0,0,1-1.24-.109c-.332-.091-.526-.3-.526-.57,0-.459.535-.9.62-.971a3.173,3.173,0,0,0,1.1.2,3.085,3.085,0,0,0,3.128-2.973,2.658,2.658,0,0,0-.443-1.471,2.946,2.946,0,0,1,1.516-.42,2.945,2.945,0,0,1,.5.043L151.354-8.9a3.343,3.343,0,0,0-2.41.771A2.884,2.884,0,0,0,146.888-8.962Zm-1.323,8.5c.329.043.79.08,1.454.1.641.024,1.341-.024,1.839.051.8.121,1.036.628,1.036,1.01a1.347,1.347,0,0,1-.812,1.152,4.089,4.089,0,0,1-1.951.38,5.017,5.017,0,0,1-1.791-.284,1.158,1.158,0,0,1-.855-1.06C144.484.266,145.066-.19,145.565-.464Zm8.452-8.226v1.115h2.1V-1.1H153.9V0h5.624V-1.1h-2.033V-8.69Zm2.82-3.771a.981.981,0,0,0-.984.976.98.98,0,0,0,.984.976.981.981,0,0,0,.984-.976A.981.981,0,0,0,156.837-12.462Zm12.878,4.935a4.293,4.293,0,0,0-3.238-1.361c-2.016,0-3.337,1.127-3.337,2.423,0,1.516,1.644,2.068,2.115,2.238.734.265,1.693.5,2.333.8.716.335.866.792.866,1.106,0,.813-.992,1.373-2.232,1.373a3.715,3.715,0,0,1-2.716-1.209.232.232,0,0,1-.053-.2.174.174,0,0,0-.084-.179l-.787,1.361A5.333,5.333,0,0,0,166.246.2c2.372,0,3.611-1.4,3.611-2.71a2.2,2.2,0,0,0-1.274-1.963c-.981-.551-2.379-.747-3.19-1.139-.709-.343-.86-.764-.86-1.055,0-.7.848-1.185,1.829-1.185a3.134,3.134,0,0,1,2.41,1.192.23.23,0,0,1,.041.181c0,.114.065.145.1.153ZM174.575-11l-.164,2.328h-2.066l-.016,1.115h2.033q-.182,2.229-.18,4.438a3.931,3.931,0,0,0,.512,2.363,2.313,2.313,0,0,0,1.977.924A4.862,4.862,0,0,0,179.444-.8l-.426-1.082a3.426,3.426,0,0,1-1.944.792,1.428,1.428,0,0,1-1.46-1.4,13.458,13.458,0,0,1-.056-1.669q0-1.7.165-3.4h2.853V-8.69h-2.837s.131-1.563.22-2.045c.038-.2.174-.321.108-.513Z" transform="translate(152.908 210)" fill="#000"/></g></g></svg>